<svg xmlns="http://www.w3.org/2000/svg" viewBox="0 0 1000 1000"><defs><style>.cls-1{fill:#c10230;}.cls-2{fill:#fff;}.cls-3{fill:#101820;}</style></defs><g id="Capa_2" data-name="Capa 2"><rect class="cls-1" width="1000" height="1000"/></g><g id="Capa_1" data-name="Capa 1"><ellipse class="cls-2" cx="500" cy="873.33" rx="16.92" ry="16.97"/><polygon class="cls-2" points="997.77 290.7 2.39 290.7 500.08 109.7 782.83 211.52 782.82 166.27 771.51 166.27 771.51 143.65 862.02 143.65 861.96 166.27 850.64 166.27 850.64 234.15 997.77 290.7"/><path class="cls-3" d="M109.51,890.25a17.58,17.58,0,0,1-6.66-1.25,15.51,15.51,0,0,1-5.34-3.53A16.66,16.66,0,0,1,94,880.08a19,19,0,0,1,0-13.6,16.29,16.29,0,0,1,3.54-5.39,15.86,15.86,0,0,1,5.36-3.54,17.82,17.82,0,0,1,6.67-1.24,17.51,17.51,0,0,1,7.3,1.48,14.32,14.32,0,0,1,5.49,4.33l-4.65,4.5a10.55,10.55,0,0,0-3.52-2.9,9.38,9.38,0,0,0-4.27-1,10,10,0,0,0-4,.78,9.19,9.19,0,0,0-3.14,2.18,9.8,9.8,0,0,0-2.06,3.32,12.82,12.82,0,0,0,0,8.53,9.84,9.84,0,0,0,2.06,3.33,9.19,9.19,0,0,0,3.14,2.18,10,10,0,0,0,4,.77,9.26,9.26,0,0,0,4.27-1,11,11,0,0,0,3.52-2.93l4.65,4.5a14.58,14.58,0,0,1-5.49,4.36A17.49,17.49,0,0,1,109.51,890.25Z"/><path class="cls-3" d="M146.57,890.25a17.87,17.87,0,0,1-6.78-1.27,16.41,16.41,0,0,1-5.4-3.57,16.19,16.19,0,0,1-3.56-5.39,18.68,18.68,0,0,1,0-13.54,16.17,16.17,0,0,1,8.94-8.94,17.45,17.45,0,0,1,6.75-1.27,17.82,17.82,0,0,1,6.75,1.24,16.15,16.15,0,0,1,8.95,8.94,19,19,0,0,1,0,13.59,16,16,0,0,1-8.95,9A17.68,17.68,0,0,1,146.57,890.25Zm0-6.43a9.24,9.24,0,0,0,6.91-3,10.29,10.29,0,0,0,2.06-3.34,12.71,12.71,0,0,0,0-8.49,10.14,10.14,0,0,0-2.06-3.33,9.3,9.3,0,0,0-3.08-2.21,9.46,9.46,0,0,0-3.83-.77,9.59,9.59,0,0,0-3.85.77,8.87,8.87,0,0,0-3.07,2.21,10.1,10.1,0,0,0-2,3.33,12.71,12.71,0,0,0,0,8.49,10.24,10.24,0,0,0,2,3.34,8.84,8.84,0,0,0,3.07,2.2A9.43,9.43,0,0,0,146.52,883.82Z"/><path class="cls-3" d="M173.31,890.25V856.31h5.93l13.19,24h-3.14l12.93-24h6v33.94h-6.68l-.09-22.64h1.33l-10.45,19h-3.19l-10.58-19H180v22.64Z"/><path class="cls-3" d="M220,890.25V856.31h5.93l13.2,24H236l12.93-24h6v33.94h-6.68l-.09-22.64h1.33l-10.45,19h-3.19l-10.58-19h1.46v22.64Z"/><path class="cls-3" d="M273.76,884h16.87v6.3h-24V856.31h23.42v6.3H273.76Zm-.53-14h14.92v6.16H273.23Z"/><path class="cls-3" d="M300.77,890.25V856.31h13.41a16.07,16.07,0,0,1,7.17,1.48A10.81,10.81,0,0,1,326,862a13.92,13.92,0,0,1,0,13.11,10.56,10.56,0,0,1-4.65,4.18,16.65,16.65,0,0,1-7.17,1.42H304.7l3.28-3.39v12.9Zm7.21-12-3.28-3.73h9.08a7.09,7.09,0,0,0,5-1.55,5.64,5.64,0,0,0,1.68-4.36,5.56,5.56,0,0,0-1.68-4.34,7.13,7.13,0,0,0-5-1.53H304.7L308,859Zm12.53,12-7.79-12.32h7.7l7.79,12.32Z"/><path class="cls-3" d="M352.6,890.25a17.58,17.58,0,0,1-6.66-1.25,15.38,15.38,0,0,1-5.33-3.53,16.5,16.5,0,0,1-3.52-5.39,18.84,18.84,0,0,1,0-13.6,16.29,16.29,0,0,1,3.54-5.39,15.82,15.82,0,0,1,5.35-3.54,17.86,17.86,0,0,1,6.67-1.24,17.44,17.44,0,0,1,7.3,1.48,14.17,14.17,0,0,1,5.49,4.33l-4.64,4.5a10.65,10.65,0,0,0-3.52-2.9,9.42,9.42,0,0,0-4.28-1,10,10,0,0,0-4,.78,9.1,9.1,0,0,0-3.14,2.18,9.65,9.65,0,0,0-2.06,3.32,12.82,12.82,0,0,0,0,8.53,9.69,9.69,0,0,0,2.06,3.33,9.1,9.1,0,0,0,3.14,2.18,10,10,0,0,0,4,.77,9.3,9.3,0,0,0,4.28-1,11.14,11.14,0,0,0,3.52-2.93l4.64,4.5a14.43,14.43,0,0,1-5.49,4.36A17.43,17.43,0,0,1,352.6,890.25Z"/><path class="cls-3" d="M374.61,890.25V856.31h7.22v33.94Z"/><path class="cls-3" d="M389.49,890.25l13.76-33.94h7.09l13.9,33.94h-7.53l-11.37-30h2.87l-11.37,30Zm6.95-7.28,1.81-6h16l1.86,6Z"/><path class="cls-3" d="M431.9,890.25V856.31h7.27v27.54h15.59v6.4Z"/><path class="cls-3" d="M545.26,890.25V856.31h13.88a17.16,17.16,0,0,1,7.43,1.48,11.17,11.17,0,0,1,4.81,4.24,13.56,13.56,0,0,1,0,13.11,10.92,10.92,0,0,1-4.81,4.18,17.78,17.78,0,0,1-7.43,1.42h-9.81l3.4-3.39v12.9Zm7.47-12-3.4-3.73h9.4a7.51,7.51,0,0,0,5.13-1.55,5.53,5.53,0,0,0,1.74-4.36,5.46,5.46,0,0,0-1.74-4.34,7.56,7.56,0,0,0-5.13-1.53h-9.4l3.4-3.73Zm13,12-8.06-12.32h8l8.07,12.32Z"/><path class="cls-3" d="M590.94,884H608.4v6.3H583.56V856.31H607.8v6.3H590.94Zm-.55-14h15.44v6.16H590.39Z"/><path class="cls-3" d="M629.47,890.25a25.89,25.89,0,0,1-7.39-1.06,17.07,17.07,0,0,1-5.71-2.74l2.52-5.72a17.37,17.37,0,0,0,4.85,2.46,17.85,17.85,0,0,0,5.73,1,11.12,11.12,0,0,0,3.55-.46,4.47,4.47,0,0,0,2-1.25,2.7,2.7,0,0,0,.64-1.8,2.51,2.51,0,0,0-1-2.09,8.06,8.06,0,0,0-2.68-1.26c-1.12-.33-2.33-.64-3.64-.94s-2.63-.66-4-1.08a15.56,15.56,0,0,1-3.67-1.69,7.81,7.81,0,0,1-2.66-2.76,8.56,8.56,0,0,1-1-4.29,9.37,9.37,0,0,1,1.46-5.13,10.15,10.15,0,0,1,4.47-3.71,18,18,0,0,1,7.54-1.38,24.26,24.26,0,0,1,6,.75,17.33,17.33,0,0,1,5.15,2.16l-2.34,5.72a18,18,0,0,0-4.44-1.9,16.58,16.58,0,0,0-4.4-.63,10.4,10.4,0,0,0-3.53.49,4.11,4.11,0,0,0-1.94,1.33,3.07,3.07,0,0,0-.62,1.88,2.54,2.54,0,0,0,1,2.11,7.34,7.34,0,0,0,2.65,1.24c1.1.3,2.33.59,3.67.89a39.79,39.79,0,0,1,4,1.1,17.63,17.63,0,0,1,3.62,1.66,8,8,0,0,1,2.69,2.72,8.18,8.18,0,0,1,1,4.25,9.13,9.13,0,0,1-1.48,5.06,10.43,10.43,0,0,1-4.52,3.7A17.84,17.84,0,0,1,629.47,890.25Z"/><path class="cls-3" d="M652.66,890.25V856.31h7.47v33.94Z"/><path class="cls-3" d="M672.27,890.25V856.31h14.56a19.32,19.32,0,0,1,9.21,2.11,15.59,15.59,0,0,1,6.24,5.91,19,19,0,0,1,0,17.89,15.54,15.54,0,0,1-6.24,5.92,19.43,19.43,0,0,1-9.21,2.11Zm7.46-6.4h6.74a11.39,11.39,0,0,0,5.56-1.29,8.92,8.92,0,0,0,3.67-3.68,12.69,12.69,0,0,0,0-11.23A9,9,0,0,0,692,864a11.39,11.39,0,0,0-5.56-1.29h-6.74Z"/><path class="cls-3" d="M722.07,884h17.46v6.3H714.69V856.31h24.24v6.3H722.07Zm-.55-14H737v6.16H721.52Z"/><path class="cls-3" d="M750,890.25V856.31h6.14l18.92,24.43h-3V856.31h7.33v33.94h-6.14l-18.92-24.44h3v24.44Z"/><path class="cls-3" d="M798.27,890.25V862.71H788v-6.4h28v6.4H805.69v27.54Z"/><path class="cls-3" d="M824.52,890.25V856.31H832v33.94Z"/><path class="cls-3" d="M839.91,890.25l14.25-33.94h7.33l14.39,33.94h-7.79l-11.77-30h3l-11.77,30Zm7.2-7.28,1.87-6h16.59l1.93,6Z"/><path class="cls-3" d="M883.81,890.25V856.31h7.47v27.54h16v6.4Z"/><path class="cls-2" d="M92.73,449.07V313.34h84.54v26.22H135.72V366h39.87v25.53H135.72v31.08H180v26.45Z"/><path class="cls-3" d="M187.69,449.07l22.69-71.91-18-63.82h41.31L244.61,360l9.72-46.63h41.43l-18,63.82,22.58,71.91H257.57l-13.32-53-13.69,53Z"/><path class="cls-3" d="M331,449.07V339.4h-25.1V313.34h92.46V339.4h-25.1V449.07Z"/><path class="cls-3" d="M410.08,449.07V313.34h84.54v26.22H453.07V366h39.87v25.53H453.07v31.08h44.31v26.45Z"/><path class="cls-3" d="M511.31,449.07V313.34h64.85q16.22,0,24.5,4.74a23.45,23.45,0,0,1,11.1,13.27,63.82,63.82,0,0,1,2.82,20q0,11.1-4.38,17.74t-16.51,9.17q10,1.32,14,6.37t4,13.07v51.36H570V395.94q0-5.94-3.78-7.37t-12.19-1.43v61.93Zm43-85.45h10.21q8.76,0,8.77-12.26,0-8-1.93-10.41t-7.2-2.47H554.3Z"/><path class="cls-3" d="M626.59,449.07V313.34h40.83V449.07Z"/><path class="cls-3" d="M734.66,449.07q-25.33,0-38.72-9.66T682.55,411.5V348.18q0-17.12,13.27-26t38.84-8.86q25.59,0,38.85,8.86t13.27,26V411.5q0,18.25-13.39,27.91T734.66,449.07Zm.37-24.54q9.6,0,9.6-11.74V347.72q0-9.84-9.37-9.84-10.56,0-10.56,10.07v65q0,6.21,2.4,8.9C728.7,423.64,731.34,424.53,735,424.53Z"/><path class="cls-3" d="M803.83,449.07V313.34h64.85q16.22,0,24.5,4.74a23.45,23.45,0,0,1,11.1,13.27,63.82,63.82,0,0,1,2.82,20q0,11.1-4.38,17.74t-16.51,9.17q10,1.32,14,6.37t4,13.07v51.36H862.55V395.94q0-5.94-3.78-7.37t-12.19-1.43v61.93Zm43-85.45H857q8.76,0,8.77-12.26,0-8-1.93-10.41t-7.2-2.47h-9.85Z"/><path class="cls-2" d="M139.67,607.44q-24.91,0-35.93-9.09t-11-28.93v-13h36v16.67a12,12,0,0,0,1.91,7.23c1.27,1.75,3.5,2.62,6.67,2.62s5.6-.71,6.87-2.12,1.91-3.74,1.91-7a27.66,27.66,0,0,0-1.65-10.27,21.92,21.92,0,0,0-5.74-7.88,106.5,106.5,0,0,0-11.32-8.74L111,535.55q-18.3-12.64-18.3-28.93,0-17.06,10.81-26t31.27-8.94q25,0,35.51,9.77t10.49,29.69h-37V502a4.92,4.92,0,0,0-2.12-4.24,9.62,9.62,0,0,0-5.74-1.52q-4.33,0-6.36,1.78a5.86,5.86,0,0,0-2,4.59,11.45,11.45,0,0,0,2.07,6.05c1.38,2.17,4.1,4.68,8.16,7.5l21,14.77a107.61,107.61,0,0,1,11.58,9.28,39.13,39.13,0,0,1,8.48,11.36q3.19,6.48,3.2,15.8,0,18.78-9.46,29.43T139.67,607.44Z"/><path class="cls-3" d="M237.57,607.44q-21.82,0-33.34-9.66T192.7,569.87V506.54q0-17.12,11.42-26t33.45-8.86q22,0,33.44,8.86t11.42,26v63.33q0,18.25-11.52,27.91T237.57,607.44Zm.3-24.54q8.28,0,8.28-11.74V506.09q0-9.85-8.07-9.85-9.11,0-9.09,10.07v65c0,4.14.68,7.11,2.06,8.9S234.7,582.9,237.87,582.9Z"/><path class="cls-3" d="M297.11,607.44V471.7H333.5V584.3h37.42v23.14Z"/><path class="cls-3" d="M423.34,607.44q-22.75,0-33.5-9.44t-10.75-27.78V471.7h35.36v97.44a39.82,39.82,0,0,0,.51,6.47,9.6,9.6,0,0,0,2.38,5.08q1.86,2,6,2t6.1-1.94a9.12,9.12,0,0,0,2.32-5.09,44.09,44.09,0,0,0,.47-6.5V471.7h35.35v98.52q0,18.35-10.75,27.78T423.34,607.44Z"/><path class="cls-3" d="M497.15,607.44V497.77H475.54V471.7h79.6v26.07h-21.6V607.44Z"/><path class="cls-3" d="M563.62,607.44V471.7h35.15V607.44Z"/><path class="cls-3" d="M656.66,607.44q-21.81,0-33.34-9.66T611.8,569.87V506.54q0-17.12,11.42-26t33.44-8.86q22,0,33.45,8.86t11.42,26v63.33q0,18.25-11.53,27.91T656.66,607.44ZM657,582.9q8.28,0,8.27-11.74V506.09q0-9.85-8.06-9.85-9.1,0-9.1,10.07v65q0,6.21,2.07,8.9T657,582.9Z"/><path class="cls-3" d="M716.21,607.44V471.7h37.42l16.75,65v-65h35.15V607.44H770l-18.19-67.87v67.87Z"/><path class="cls-3" d="M864.87,607.44q-24.92,0-35.92-9.09t-11-28.93v-13h36v16.67a12.06,12.06,0,0,0,1.91,7.23q1.92,2.63,6.67,2.62,5,0,6.88-2.12t1.91-7a27.64,27.64,0,0,0-1.66-10.27,21.92,21.92,0,0,0-5.74-7.88,107.27,107.27,0,0,0-11.31-8.74l-16.34-11.37q-18.3-12.64-18.3-28.93,0-17.06,10.81-26T860,471.7q25,0,35.51,9.77T906,511.16H869V502a4.94,4.94,0,0,0-2.12-4.24,9.64,9.64,0,0,0-5.74-1.52q-4.35,0-6.36,1.78a5.84,5.84,0,0,0-2,4.59,11.45,11.45,0,0,0,2.07,6.05c1.38,2.17,4.1,4.68,8.17,7.5l21,14.77a105.68,105.68,0,0,1,11.58,9.28,39,39,0,0,1,8.48,11.36q3.19,6.48,3.2,15.8,0,18.78-9.45,29.43T864.87,607.44Z"/><path class="cls-2" d="M137.55,765.82q-21.8,0-33.3-9.67T92.73,728.24V664.91q0-17.11,11.41-26t33.41-8.87q22,0,33.41,8.87t11.41,26v63.33q0,18.25-11.52,27.91T137.55,765.82Zm.31-24.55q8.25,0,8.26-11.74V664.46q0-9.84-8.05-9.85-9.1,0-9.09,10.07v65q0,6.21,2.06,8.9C132.42,740.38,134.69,741.27,137.86,741.27Z"/><path class="cls-3" d="M200.37,765.82V630.06h34.92l15.63,65v-65h32.8V765.82H250.53l-17-67.88v67.88Z"/><path class="cls-3" d="M304,765.82l16.4-135.76H378l16.11,135.76H362l-2.41-21.91H339.14L337,765.82Zm37.53-43.58H357l-7.43-69H348Z"/><path class="cls-3" d="M426.49,765.82V656.14H406.32V630.06h74.29v26.08H460.45V765.82Z"/><path class="cls-3" d="M499.94,765.82V630.06h67.92v26.23H534.48v26.46h32v25.53h-32v31.08h35.6v26.46Z"/><path class="cls-3" d="M594.82,765.82l6.36-17.88H588.93V725.36H625v21.9l-9.84,18.56Z"/><path class="cls-3" d="M688.94,743.19v-90.5h22.64v75.08h23.28v15.42Z"/><path class="cls-3" d="M747.88,743.19v-90.5h22.64v75.08h23.29v15.42Z"/><path class="cls-3" d="M833.3,743.19q-12.33,0-19.85-6t-7.53-16.81v-41q0-12.93,6.56-19.8t21.34-6.87A41.57,41.57,0,0,1,848.19,655a21.74,21.74,0,0,1,9.91,7,18.3,18.3,0,0,1,3.62,11.64V689h-22.6V675.82c0-2.66-.44-4.45-1.3-5.37a5.18,5.18,0,0,0-4-1.4q-3.17,0-4.26,1.8a9.05,9.05,0,0,0-1.1,4.77v44.49c0,2.46.47,4.19,1.39,5.2a5.11,5.11,0,0,0,4,1.52,4.49,4.49,0,0,0,4.1-1.87,8.82,8.82,0,0,0,1.2-4.85v-16H862v16.82q0,11.72-7.56,17T833.3,743.19Z"/><rect class="cls-3" x="2.23" y="788.43" width="995.55" height="45.25"/></g></svg>